<?xml version="1.0" encoding="UTF-8" standalone="no"?>
<svg
   xmlns:dc="http://purl.org/dc/elements/1.1/"
   xmlns:cc="http://creativecommons.org/ns#"
   xmlns:rdf="http://www.w3.org/1999/02/22-rdf-syntax-ns#"
   xmlns:svg="http://www.w3.org/2000/svg"
   xmlns="http://www.w3.org/2000/svg"
   viewBox="0 0 480 480"
   height="480"
   width="480"
   xml:space="preserve"
   id="svg2"
   version="1.1"><metadata
     id="metadata8"><rdf:RDF><cc:Work
         rdf:about=""><dc:format>image/svg+xml</dc:format><dc:type
           rdf:resource="http://purl.org/dc/dcmitype/StillImage" /></cc:Work></rdf:RDF></metadata><defs
     id="defs6" /><g
     id="g10"><g
       id="g12"><g
         id="g14"><text
           id="text18"
           style="font-variant:normal;font-weight:bold;font-size:17.84749985px;font-family:CenturyGothic;-inkscape-font-specification:CenturyGothic-Bold;writing-mode:lr-tb;fill:#231f20;fill-opacity:1;fill-rule:nonzero;stroke:none"
           ><tspan
             id="tspan16"
             y="0"
             x="0 16.327105 27.6621 38.281204 52.822205 59.154232 69.774323 86.101433 98.865143 110.55653 125.81245">OPEN SOURCE</tspan></text>
</g><path
         id="path20"
         style="fill:#231f20;fill-opacity:1;fill-rule:nonzero;stroke:none"
         d="m 1157.18,1003.32 -35.61,-75.211 h 71.04 z m 2.61,44.14 96.91,-207.78 h -22.43 l -32.68,68.371 h -89.52 l -32.36,-68.371 h -23.17 l 98.17,207.78 h 5.08" /><path
         id="path22"
         style="fill:#231f20;fill-opacity:1;fill-rule:nonzero;stroke:none"
         d="m 1310.6,1047.46 h 20.76 V 859.738 h 79.95 V 839.68 H 1310.6 v 207.78" /><path
         id="path24"
         style="fill:#231f20;fill-opacity:1;fill-rule:nonzero;stroke:none"
         d="m 1659.43,1008.91 -16.38,-12.578 c -9.04,11.768 -19.9,20.688 -32.56,26.768 -12.67,6.07 -26.57,9.11 -41.74,9.11 -16.57,0 -31.92,-3.98 -46.04,-11.94 -14.14,-7.96 -25.08,-18.64 -32.85,-32.071 -7.77,-13.41 -11.65,-28.5 -11.65,-45.258 0,-25.332 8.68,-46.48 26.06,-63.429 17.37,-16.953 39.29,-25.422 65.75,-25.422 29.1,0 53.45,11.39 73.03,34.18 l 16.38,-12.43 c -10.36,-13.18 -23.28,-23.379 -38.77,-30.578 -15.49,-7.203 -32.79,-10.813 -51.91,-10.813 -36.35,0 -65.02,12.102 -86.03,36.301 -17.6,20.441 -26.4,45.109 -26.4,74.031 0,30.41 10.66,55.999 31.99,76.759 21.33,20.76 48.05,31.15 80.16,31.15 19.4,0 36.91,-3.84 52.55,-11.51 15.63,-7.67 28.43,-18.44 38.41,-32.27" /><path
         id="path26"
         style="fill:#231f20;fill-opacity:1;fill-rule:nonzero;stroke:none"
         d="m 1722.52,1047.46 h 20.76 v -87.151 h 105.8 v 87.151 h 20.76 V 839.68 h -20.76 v 100.289 h -105.8 V 839.68 h -20.76 v 207.78" /><path
         id="path28"
         style="fill:#231f20;fill-opacity:1;fill-rule:nonzero;stroke:none"
         d="m 1942.26,1047.46 h 119.07 v -20.34 h -98.31 V 962 h 97.46 v -20.34 h -97.46 v -81.64 h 97.46 v -20.34 h -118.22 v 207.78" /><path
         id="path30"
         style="fill:#231f20;fill-opacity:1;fill-rule:nonzero;stroke:none"
         d="m 2109.44,839.68 29.75,207.78 h 3.38 l 84.47,-170.491 83.65,170.491 h 3.33 l 29.91,-207.78 h -20.37 l -20.53,148.601 -73.47,-148.601 h -5.3 L 2149.91,989.398 2129.5,839.68 h -20.06" /><path
         id="path32"
         style="fill:#231f20;fill-opacity:1;fill-rule:nonzero;stroke:none"
         d="m 2390.05,1047.46 h 23.9 l 53.16,-85.69 52.33,85.69 h 24.02 l -65.83,-108.48 v -99.3 h -20.48 v 99.3 l -67.1,108.48" /><path
         id="path34"
         style="fill:#231f20;fill-opacity:1;fill-rule:nonzero;stroke:none"
         d="m 1811.84,2830.23 c -372.85,0 -676.18,-303.33 -676.18,-676.17 0,-372.84 303.33,-676.17 676.18,-676.17 372.84,0 676.17,303.33 676.17,676.17 0,372.84 -303.33,676.17 -676.17,676.17 z m 0,-1373 c -384.24,0 -696.84,312.59 -696.84,696.83 0,384.24 312.6,696.84 696.84,696.84 384.23,0 696.83,-312.6 696.83,-696.84 0,-384.24 -312.6,-696.83 -696.83,-696.83" /><path
         id="path36"
         style="fill:#231f20;fill-opacity:1;fill-rule:nonzero;stroke:none"
         d="m 2091.38,1800.31 -11.35,15.08 c 111.36,83.83 176.27,211.75 178.1,350.96 3.21,246.07 -194.37,448.9 -440.45,452.13 -1.97,0.02 -3.96,0.04 -5.92,0.04 -243.43,0 -443.02,-196.38 -446.21,-440.5 -1.86,-141.31 61.23,-272.09 173.06,-358.79 l -11.56,-14.92 c -116.56,90.37 -182.3,226.67 -180.37,373.96 1.62,124.25 51.53,240.42 140.55,327.13 89,86.71 206.17,133.68 330.7,131.94 256.48,-3.36 462.42,-214.76 459.06,-471.25 -1.89,-145.08 -69.55,-278.4 -185.61,-365.78" /><path
         id="path38"
         style="fill:#231f20;fill-opacity:1;fill-rule:nonzero;stroke:none"
         d="m 2066.51,1868.13 -17.03,8.13 c 16.89,35.43 25.45,73.46 25.45,113.02 0,145.07 -118.03,263.09 -263.09,263.09 -145.07,0 -263.1,-118.02 -263.1,-263.09 0,-38.58 8.15,-75.74 24.24,-110.45 l -17.13,-7.93 c -17.24,37.22 -25.98,77.04 -25.98,118.38 0,155.48 126.49,281.96 281.97,281.96 155.47,0 281.96,-126.48 281.96,-281.96 0,-42.4 -9.18,-83.16 -27.29,-121.15" /><path
         id="path40"
         style="fill:#231f20;fill-opacity:1;fill-rule:nonzero;stroke:none"
         d="m 1660.21,2117.66 c -81.62,52.14 -130.34,141.03 -130.34,237.76 0,155.48 126.49,281.96 281.97,281.96 155.47,0 281.96,-126.48 281.96,-281.96 0,-93.82 -46.47,-181.22 -124.31,-233.81 l -10.56,15.65 c 72.63,49.07 116,130.62 116,218.16 0,145.07 -118.03,263.1 -263.09,263.1 -145.07,0 -263.1,-118.03 -263.1,-263.1 0,-90.26 45.47,-173.2 121.63,-221.87 l -10.16,-15.89" /><path
         id="path42"
         style="fill:#231f20;fill-opacity:1;fill-rule:nonzero;stroke:none"
         d="m 1539.24,1821.99 c -70.93,72.81 -109.26,168.9 -107.93,270.54 1.23,93.83 36.85,183.5 100.3,252.5 l 13.89,-12.77 c -60.29,-65.58 -94.15,-150.8 -95.32,-239.98 -1.26,-96.6 35.17,-187.91 102.57,-257.12 l -13.51,-13.17" /><path
         id="path44"
         style="fill:#231f20;fill-opacity:1;fill-rule:nonzero;stroke:none"
         d="m 2084.75,1822.31 -13.54,13.17 c 64.74,66.58 101.07,154.42 102.28,247.33 1.2,91.95 -32.19,180.02 -94.02,248.01 l 13.97,12.7 c 65.05,-71.54 100.18,-164.21 98.91,-260.96 -1.27,-97.76 -39.49,-190.18 -107.6,-260.25" /><path
         id="path46"
         style="fill:#231f20;fill-opacity:1;fill-rule:nonzero;stroke:none"
         d="m 1525.97,1737.41 h 569.08 l -284.53,691.02 z m 630.8,-41.33 h -692.51 l 344.95,837.12 347.56,-837.12" /><path
         id="path48"
         style="fill:#231f20;fill-opacity:1;fill-rule:nonzero;stroke:none"
         d="m 1717.28,2222.79 -15.53,38.3 c 34.97,14.18 72.01,21.38 110.09,21.38 36.93,0 72.95,-6.79 107.09,-20.18 l -15.1,-38.47 c -59.49,23.35 -127.41,22.97 -186.55,-1.03" /></g></g></svg>