<?xml version="1.0" encoding="UTF-8"?>
<svg 
    xmlns="http://www.w3.org/2000/svg" 
    xmlns:xlink="http://www.w3.org/1999/xlink" 
    width="360" height="360" 
    viewBox="97 97 166 166" version="1.1">
<g id="surface1" 
    style="stroke:none;fill-rule:nonzero;fill:rgb(11.941528%,54.722595%,78.100586%);
    fill-opacity:1; ">
<path d="M 180 100.339844 C 136.074219 100.339844 100.339844 136.074219 100.339844 180 C 100.339844 223.925781 136.074219 259.660156 180 259.660156 C 223.925781 259.660156 259.660156 223.925781 259.660156 180 C 259.660156 136.074219 223.925781 100.339844 180 100.339844 Z M 180 262.09375 C 134.734375 262.09375 97.90625 225.265625 97.90625 180 C 97.90625 134.734375 134.734375 97.90625 180 97.90625 C 225.265625 97.90625 262.09375 134.734375 262.09375 180 C 262.09375 225.265625 225.265625 262.09375 180 262.09375 "/>
<path d="M 212.933594 221.675781 L 211.597656 219.898438 C 224.714844 210.023438 232.363281 194.953125 232.578125 178.554688 C 232.957031 149.5625 209.679688 125.667969 180.6875 125.289062 C 180.457031 125.285156 180.222656 125.28125 179.992188 125.28125 C 151.3125 125.28125 127.800781 148.417969 127.421875 177.179688 C 127.203125 193.824219 134.636719 209.230469 147.8125 219.445312 L 146.449219 221.203125 C 132.71875 210.558594 124.972656 194.5 125.199219 177.148438 C 125.390625 162.511719 131.269531 148.824219 141.757812 138.609375 C 152.242188 128.394531 166.046875 122.859375 180.71875 123.066406 C 210.933594 123.460938 235.195312 148.367188 234.800781 178.582031 C 234.578125 195.675781 226.605469 211.382812 212.933594 221.675781 "/>
<path d="M 210.003906 213.683594 L 207.996094 212.726562 C 209.984375 208.554688 210.996094 204.074219 210.996094 199.414062 C 210.996094 182.324219 197.089844 168.417969 180 168.417969 C 162.910156 168.417969 149.003906 182.324219 149.003906 199.414062 C 149.003906 203.957031 149.964844 208.335938 151.859375 212.425781 L 149.84375 213.359375 C 147.8125 208.976562 146.78125 204.28125 146.78125 199.414062 C 146.78125 181.097656 161.683594 166.195312 180 166.195312 C 198.316406 166.195312 213.21875 181.097656 213.21875 199.414062 C 213.21875 204.40625 212.136719 209.210938 210.003906 213.683594 "/>
<path d="M 162.136719 184.289062 C 152.523438 178.144531 146.78125 167.675781 146.78125 156.277344 C 146.78125 137.960938 161.683594 123.0625 180 123.0625 C 198.316406 123.0625 213.21875 137.960938 213.21875 156.277344 C 213.21875 167.332031 207.742188 177.628906 198.574219 183.824219 L 197.328125 181.980469 C 205.886719 176.199219 210.996094 166.589844 210.996094 156.277344 C 210.996094 139.1875 197.089844 125.28125 180 125.28125 C 162.910156 125.28125 149.003906 139.1875 149.003906 156.277344 C 149.003906 166.910156 154.359375 176.683594 163.335938 182.414062 L 162.136719 184.289062 "/>
<path d="M 147.886719 219.121094 C 139.527344 210.542969 135.015625 199.222656 135.171875 187.25 C 135.316406 176.195312 139.511719 165.632812 146.988281 157.503906 L 148.621094 159.007812 C 141.519531 166.730469 137.53125 176.773438 137.394531 187.277344 C 137.246094 198.65625 141.535156 209.417969 149.476562 217.570312 L 147.886719 219.121094 "/>
<path d="M 212.152344 219.082031 L 210.558594 217.53125 C 218.183594 209.6875 222.464844 199.339844 222.605469 188.394531 C 222.746094 177.5625 218.8125 167.1875 211.53125 159.175781 L 213.175781 157.679688 C 220.839844 166.109375 224.976562 177.027344 224.828125 188.425781 C 224.679688 199.941406 220.175781 210.828125 212.152344 219.082031 "/>
<path d="M 146.324219 229.085938 L 213.367188 229.085938 L 179.84375 147.675781 Z M 220.636719 233.953125 L 139.050781 233.953125 L 179.691406 135.335938 L 220.636719 233.953125 "/>
<path d="M 168.859375 171.902344 L 167.03125 167.390625 C 171.148438 165.722656 175.515625 164.871094 180 164.871094 C 184.351562 164.871094 188.59375 165.671875 192.617188 167.25 L 190.835938 171.78125 C 183.828125 169.03125 175.828125 169.074219 168.859375 171.902344 "/>
</g>
</svg>
